<?xml version="1.0" standalone="no"?>
<!DOCTYPE svg PUBLIC "-//W3C//DTD SVG 20010904//EN"
 "http://www.w3.org/TR/2001/REC-SVG-20010904/DTD/svg10.dtd">
<svg version="1.0" xmlns="http://www.w3.org/2000/svg"
 width="1181.300150pt" height="618.609832pt" viewBox="0 0 1181.300150 618.609832"
 preserveAspectRatio="xMidYMid meet">
<style>
  path { fill: #000000; }
  @media (prefers-color-scheme: dark) {
    path { fill: #ffffff; }
  }
</style>
<metadata>
Created by potrace 1.12, written by Peter Selinger 2001-2015
</metadata>
<g transform="translate(-94.000000,833.666549) scale(0.100000,-0.100000)"
fill="#000000" stroke="none">
<path d="M11550 7799 c-1125 -517 -1358 -624 -2465 -1132 -757 -347 -1051
-443 -1627 -532 -407 -62 -702 -76 -1117 -53 -253 15 -324 23 -621 72 -289 47
-379 67 -650 140 -397 107 -327 84 -860 284 -533 199 -460 168 -875 370 -311
150 -389 195 -1354 766 -563 333 -1028 606 -1033 606 -4 0 -8 -6 -8 -13 0 -10
3926 -3373 4088 -3503 l27 -21 510 234 c404 185 514 232 530 225 11 -5 1190
-701 2620 -1547 1430 -846 2608 -1540 2618 -1543 9 -2 17 -2 17 1 0 25 182
793 191 803 6 7 8 17 5 23 -4 5 266 1203 599 2663 333 1459 607 2662 608 2673
1 10 -5 20 -13 22 -8 1 -544 -241 -1190 -538z m1160 479 c0 -18 -86 -387 -91
-392 -7 -7 -821 -297 -824 -294 -2 2 21 77 51 168 l54 165 397 182 c219 100
401 182 406 183 4 0 7 -6 7 -12z m-11090 -388 c245 -144 452 -270 460 -280 8
-10 62 -50 120 -90 58 -40 100 -71 94 -69 -6 2 -174 83 -373 179 l-362 175
-192 163 c-106 90 -203 175 -217 189 l-25 25 25 -15 c14 -8 225 -133 470 -277z
m10181 -164 c-27 -82 -55 -153 -63 -156 -7 -4 -155 -58 -328 -120 -173 -62
-350 -125 -392 -141 l-77 -28 11 27 c5 15 33 74 61 130 l52 104 390 178 c233
107 391 174 393 167 1 -7 -20 -79 -47 -161z m806 92 c-3 -13 -24 -108 -48
-213 -23 -104 -47 -195 -53 -202 -10 -10 -836 -226 -843 -220 -4 4 108 351
116 360 9 9 800 295 820 296 9 1 11 -6 8 -21z m-10447 -338 c272 -132 361
-180 482 -262 81 -55 148 -102 148 -104 0 -4 -39 10 -424 155 -147 55 -272 98
-277 95 -8 -4 -409 330 -409 341 0 6 96 -39 480 -225z m9521 -127 c-32 -97
-64 -180 -72 -185 -19 -10 -810 -210 -815 -206 -4 5 115 259 127 273 9 9 783
292 805 294 7 1 -13 -76 -45 -176z m-695 105 c-13 -29 -39 -84 -57 -123 l-34
-70 -384 -137 c-212 -76 -386 -136 -388 -134 -2 2 22 40 53 84 l58 81 380 175
c210 96 384 175 388 176 4 0 -3 -24 -16 -52z m-8381 -156 c-8 -8 -205 109
-205 123 0 2 47 -24 104 -58 58 -34 103 -63 101 -65z m9890 26 c-4 -18 -28
-125 -53 -238 l-47 -204 -435 -66 c-239 -37 -436 -66 -437 -66 -2 2 119 378
123 384 2 3 827 218 847 221 4 0 5 -14 2 -31z m-9958 -157 l382 -143 182 -124
c101 -68 178 -124 171 -124 -6 0 -163 41 -349 92 -186 50 -347 91 -358 91 -16
1 -122 87 -424 345 -22 19 -37 24 396 -137z m8333 44 c0 -16 -121 -261 -132
-268 -14 -9 -791 -208 -795 -203 -3 3 113 166 131 185 11 11 763 288 789 290
4 1 7 -1 7 -4z m-7910 -123 c61 -30 219 -122 208 -122 -3 0 -58 20 -121 44
-84 31 -143 63 -221 116 -58 40 -106 75 -106 77 0 2 42 -17 93 -43 50 -25 117
-57 147 -72z m7195 11 c-77 -118 -90 -132 -145 -154 -51 -19 -310 -113 -580
-208 l-115 -41 43 38 c30 26 160 91 425 214 210 97 384 177 386 177 2 1 -5
-11 -14 -26z m1399 -140 c-30 -93 -57 -178 -60 -191 -3 -12 -16 -24 -28 -27
-46 -10 -828 -126 -831 -123 -8 7 133 292 146 297 25 8 804 209 815 210 7 1
-10 -68 -42 -166z m-8338 -46 c100 -38 187 -81 298 -147 86 -51 155 -94 153
-96 -2 -2 -66 14 -144 36 -139 39 -141 40 -289 141 -146 99 -173 119 -163 119
2 0 67 -24 145 -53z m-226 -98 c206 -56 384 -106 395 -112 47 -25 327 -221
319 -224 -5 -1 -171 24 -370 56 l-361 58 -174 148 c-206 175 -206 175 -194
175 5 0 178 -45 385 -101z m6970 8 c-33 -47 -66 -89 -73 -95 -6 -5 -174 -51
-372 -101 -198 -50 -369 -94 -380 -97 -20 -5 9 24 82 82 27 21 791 306 801
299 2 -2 -24 -41 -58 -88z m760 68 c0 -8 -122 -268 -129 -277 -6 -6 -781 -128
-817 -128 -10 0 1 24 38 75 100 144 54 122 488 234 374 96 420 107 420 96z
m1630 -207 c-21 -90 -47 -206 -59 -258 l-22 -95 -97 -3 c-53 -2 -253 -11 -444
-20 -220 -11 -348 -14 -348 -8 0 6 29 101 65 212 l65 202 117 18 c65 9 255 39
423 65 168 26 312 47 321 48 14 1 11 -22 -21 -161z m-8695 63 c93 -37 370
-173 340 -166 -127 26 -189 51 -315 126 -74 45 -128 79 -120 76 8 -2 51 -19
95 -36z m5607 -56 c-27 -23 -220 -100 -228 -92 -4 4 236 117 249 117 5 0 -5
-11 -21 -25z m2208 9 c0 -3 -30 -98 -66 -210 l-66 -204 -32 0 c-18 0 -214 -9
-436 -20 -222 -11 -405 -19 -407 -17 -4 4 135 308 147 320 7 7 786 133 843
136 9 1 17 -2 17 -5z m-7818 -63 c138 -37 156 -45 300 -130 103 -61 145 -91
128 -90 -14 0 -83 10 -155 23 l-130 22 -150 103 c-157 108 -180 126 -155 117
8 -3 81 -23 162 -45z m6192 27 c-4 -7 -32 -49 -63 -92 -31 -44 -59 -84 -62
-89 -5 -7 -759 -128 -793 -127 -11 1 -4 7 87 83 43 36 61 42 428 136 211 55
390 100 397 100 8 1 10 -4 6 -11z m-747 -112 c-47 -42 -55 -45 -269 -100 -121
-31 -222 -55 -225 -53 -2 3 47 23 109 46 347 126 414 150 423 150 6 0 -12 -19
-38 -43z m-4869 -18 c45 -17 80 -33 78 -35 -7 -7 -125 35 -166 58 -39 22 -31
20 88 -23z m6313 -30 c-16 -35 -49 -106 -74 -160 l-46 -96 -63 -6 c-103 -9
-752 -38 -775 -34 -19 3 -12 16 63 119 l84 117 82 12 c46 6 223 33 393 60 171
26 322 48 337 49 l27 1 -28 -62z m-6461 18 c122 -34 420 -165 375 -166 -43 0
-245 39 -272 54 -61 31 -248 146 -238 146 6 0 66 -15 135 -34z m-656 -35 c258
-42 376 -65 395 -78 87 -57 301 -206 299 -208 -2 -1 -142 6 -313 16 -170 10
-333 18 -362 18 l-52 1 -181 155 c-100 85 -175 155 -167 155 8 0 179 -27 381
-59z m5506 -81 c-30 -27 -66 -53 -80 -59 -14 -5 -135 -26 -270 -45 -135 -20
-256 -38 -270 -41 -14 -2 -2 7 25 20 40 19 601 172 640 174 6 1 -15 -21 -45
-49z m-4350 -19 c155 -42 330 -104 270 -96 -214 31 -256 42 -355 94 -55 28
-91 49 -80 47 11 -3 85 -23 165 -45z m5083 21 c-84 -128 -141 -203 -158 -207
-20 -4 -807 -43 -813 -39 -2 1 37 35 85 76 l88 74 355 53 c195 30 373 57 395
61 68 13 69 13 48 -18z m-5598 -26 l140 -24 148 -87 c81 -48 146 -89 145 -90
-2 -2 -73 1 -158 6 l-154 10 -106 72 c-211 143 -217 148 -184 142 16 -3 92
-16 169 -29z m413 -66 c109 -18 137 -28 262 -87 77 -36 139 -68 137 -69 -2 -2
-70 0 -151 6 l-147 9 -140 82 c-76 45 -139 83 -139 86 0 3 12 2 28 -1 15 -3
82 -15 150 -26z m4277 -56 c-22 -20 -58 -51 -80 -69 l-40 -33 -230 -11 c-126
-6 -270 -13 -320 -16 l-90 -6 75 37 c69 34 98 41 370 85 162 26 309 47 325 48
l30 0 -40 -35z m3500 9 c-3 -15 -31 -135 -61 -267 -30 -132 -55 -241 -57 -242
-3 -3 -911 48 -915 51 -3 3 136 436 141 442 4 4 706 40 816 42 l83 1 -7 -27z
m-7340 -23 c102 -16 170 -34 255 -66 127 -48 127 -48 -75 -35 l-131 9 -119 61
c-66 34 -109 60 -95 57 14 -2 88 -14 165 -26z m6359 -157 c-30 -93 -61 -192
-71 -220 l-17 -53 -45 0 c-65 -1 -855 42 -860 47 -3 2 145 327 157 343 3 4
179 14 863 49 l27 1 -54 -167z m-7444 92 c168 -9 317 -17 331 -20 26 -4 314
-193 306 -201 -2 -3 -152 -12 -333 -20 -244 -12 -331 -19 -338 -29 -9 -12 -28
3 -331 262 l-40 34 50 -5 c28 -3 187 -13 355 -21z m6561 3 c-5 -13 -41 -89
-80 -170 -51 -109 -75 -148 -88 -148 -76 -2 -863 46 -863 52 0 4 38 61 86 128
63 89 91 120 107 121 12 0 171 9 352 18 182 10 367 19 412 20 82 1 82 1 74
-21z m-5016 -14 c39 -8 90 -20 115 -28 l45 -14 -65 0 c-51 -1 -85 7 -155 33
-94 36 -84 38 60 9z m2603 -14 c-35 -19 -79 -32 -115 -35 l-58 -5 65 26 c56
22 122 40 155 42 6 1 -16 -12 -47 -28z m1506 -2 c-10 -17 -155 -221 -165 -231
-8 -10 -859 33 -858 42 0 3 42 41 92 83 87 74 95 78 142 79 28 0 201 9 385 18
441 24 413 23 404 9z m-5024 -7 l115 -7 132 -79 c73 -43 131 -80 128 -83 -2
-3 -71 -8 -152 -12 l-147 -8 -86 58 c-48 32 -113 76 -145 99 l-58 41 49 -1
c27 0 101 -4 164 -8z m368 -21 l143 -9 120 -57 c66 -32 116 -61 112 -64 -5 -4
-71 -10 -148 -13 l-141 -6 -134 79 c-74 44 -126 80 -115 80 11 0 84 -5 163
-10z m2877 -5 c-22 -8 -49 -13 -60 -13 -11 0 -2 5 20 13 22 7 49 13 60 13 11
0 2 -6 -20 -13z m-2425 -20 c99 -5 129 -11 215 -42 55 -20 104 -39 108 -43 4
-4 -63 -10 -150 -14 l-158 -7 -120 61 -120 60 55 -5 c30 -2 107 -7 170 -10z
m3300 11 c0 -2 -38 -36 -85 -76 l-85 -72 -328 16 c-180 10 -334 18 -342 20 -8
1 26 22 75 45 l90 42 240 13 c250 14 435 19 435 12z m-2748 -60 l83 -23 -100
-8 c-94 -8 -105 -6 -180 20 -44 15 -87 32 -95 37 -30 18 207 -3 292 -26z
m1908 -6 c-67 -31 -97 -40 -141 -40 -31 0 -59 3 -63 7 -10 10 111 54 174 63
116 16 120 12 30 -30z m-185 21 c-6 -5 -40 -18 -78 -31 -54 -17 -78 -20 -120
-14 l-52 7 50 14 c28 8 84 18 125 22 41 5 77 9 80 10 2 0 0 -3 -5 -8z m-1402
-21 c23 -6 9 -8 -53 -9 -47 0 -107 6 -135 14 -49 14 -49 14 53 8 56 -3 117 -9
135 -13z m1087 0 c-14 -4 -54 -8 -90 -8 -62 1 -63 1 -20 8 25 4 65 7 90 8 36
0 40 -2 20 -8z m-567 -33 c-34 -6 -67 -6 -100 1 -44 9 -40 10 52 10 94 -1 97
-1 48 -11z m-225 -13 c29 -4 51 -8 49 -11 -2 -2 -44 -10 -93 -18 -85 -14 -92
-14 -174 8 l-85 22 90 6 c92 6 119 5 213 -7z m550 5 l67 -1 -70 -19 c-53 -15
-88 -19 -143 -14 -41 2 -79 8 -85 12 -13 8 129 33 151 27 8 -2 44 -4 80 -5z
m-881 -30 c43 -12 82 -24 88 -27 5 -4 -41 -14 -103 -23 l-113 -18 -102 39
-102 38 60 4 c148 10 197 7 272 -13z m1188 12 c15 -6 1 -14 -64 -36 -71 -23
-93 -27 -147 -21 -105 11 -107 18 -14 42 86 22 188 29 225 15z m272 -15 c1 -1
-42 -21 -95 -45 l-97 -43 -85 12 -84 13 104 38 c97 34 111 37 180 32 41 -3 76
-6 77 -7z m-1756 -36 c57 -21 97 -40 89 -40 -8 -1 -80 -12 -160 -25 l-145 -23
-120 56 -119 57 64 6 c36 3 115 6 176 7 107 2 115 1 215 -38z m907 18 c45 -6
80 -13 78 -15 -7 -7 -189 -53 -211 -53 -28 0 -186 42 -180 48 7 7 143 29 190
31 22 0 77 -4 123 -11z m1287 -3 c138 -8 272 -15 298 -15 27 0 47 -4 45 -10
-1 -5 -46 -45 -98 -90 -77 -66 -99 -80 -120 -76 -14 3 -169 28 -345 56 -176
28 -327 52 -335 54 -8 1 28 24 80 49 113 54 105 54 475 32z m-2587 -54 l114
-57 -144 -22 c-78 -12 -151 -22 -161 -22 -10 0 -75 34 -144 74 l-126 75 59 4
c32 2 111 4 174 5 l115 1 113 -58z m-398 -27 c72 -42 130 -79 130 -83 0 -3
-68 -16 -151 -29 l-151 -22 -134 92 c-73 50 -132 93 -130 95 2 2 66 8 142 12
77 4 145 9 152 10 7 0 71 -33 142 -75z m-362 -41 c79 -54 140 -99 135 -100 -4
-2 -153 -25 -331 -52 -178 -27 -329 -54 -335 -59 -8 -7 -59 31 -170 126 -86
74 -155 138 -151 141 4 4 283 21 679 40 23 1 64 -22 173 -96z m1745 66 c45
-11 85 -24 90 -28 11 -11 -208 -64 -240 -58 -42 9 -210 76 -193 77 8 1 65 10
125 20 61 10 116 16 123 14 8 -2 50 -13 95 -25z m595 15 c29 -4 54 -10 57 -14
4 -7 -193 -80 -217 -80 -21 0 -179 43 -174 48 15 14 216 61 246 57 19 -3 59
-8 88 -11z m1855 -6 c229 -12 417 -26 417 -30 0 -7 -158 -236 -179 -260 -5 -6
-845 123 -885 135 -13 4 194 177 212 177 9 0 205 -10 435 -22z m-1647 -28
c117 -21 117 -17 -9 -75 l-116 -53 -78 20 c-43 11 -82 23 -86 27 -6 6 192 86
224 90 3 1 32 -4 65 -9z m-1120 -42 c63 -23 110 -45 106 -49 -4 -3 -73 -23
-154 -43 l-147 -38 -122 59 c-79 37 -116 59 -103 62 10 2 82 14 159 26 77 12
142 23 144 24 2 0 55 -18 117 -41z m3721 19 c215 -13 394 -25 398 -28 5 -6
-149 -346 -165 -363 -6 -6 -847 120 -912 137 -5 1 36 64 89 140 l97 137 50 -1
c28 0 227 -10 443 -22z m-3127 -32 c51 -14 95 -27 97 -29 5 -4 -229 -86 -246
-86 -17 0 -182 60 -194 70 -7 6 200 65 238 69 6 1 53 -10 105 -24z m1051 -30
c189 -30 354 -57 367 -60 21 -5 10 -17 -92 -104 l-115 -98 -376 101 c-206 55
-375 103 -375 106 0 6 221 108 236 109 7 1 166 -24 355 -54z m2993 10 c235
-13 430 -26 433 -28 2 -3 -30 -111 -72 -242 l-77 -236 -26 5 c-28 6 -900 146
-907 146 -2 0 16 43 41 95 24 52 64 138 88 190 38 80 49 95 68 95 13 0 216
-11 452 -25z m-5011 -47 l129 -63 -149 -37 c-81 -21 -155 -38 -164 -38 -18 0
-262 141 -255 147 2 3 71 15 152 28 82 12 151 23 154 24 3 1 63 -27 133 -61z
m1210 1 c45 -11 86 -24 90 -28 8 -8 -210 -111 -235 -111 -9 0 -57 15 -108 33
l-93 34 79 28 c44 16 99 36 124 46 57 23 47 23 143 -2z m4812 -10 c209 -11
381 -22 382 -23 3 -2 -127 -579 -131 -582 -1 -1 -940 148 -943 150 -2 1 139
441 152 474 4 11 22 13 83 8 42 -3 248 -16 457 -27z m-5373 -14 c51 -20 100
-38 108 -41 17 -6 -274 -114 -305 -113 -11 0 -67 24 -124 53 l-104 53 159 40
c87 23 162 42 166 42 3 1 48 -15 100 -34z m-1021 -51 c72 -42 128 -79 125 -81
-7 -7 -269 -73 -291 -73 -21 0 -260 158 -264 175 -1 8 212 49 283 54 10 0 76
-33 147 -75z m3282 -33 c236 -38 431 -71 432 -73 6 -6 -196 -289 -209 -294
-10 -4 -905 232 -914 240 -7 8 226 196 243 196 11 0 213 -31 448 -69z m-1143
-42 c206 -55 375 -101 376 -102 6 -6 -241 -207 -250 -204 -513 191 -775 292
-769 298 16 16 229 109 249 109 11 0 189 -45 394 -101z m-2494 -1 c105 -71
131 -94 117 -99 -10 -3 -163 -43 -340 -89 -318 -81 -323 -82 -346 -63 -13 10
-81 68 -151 128 -98 83 -124 111 -110 114 61 12 635 99 662 100 27 1 61 -18
168 -91z m1019 10 c58 -29 105 -55 105 -59 0 -4 -68 -30 -151 -59 l-150 -53
-42 23 c-77 43 -202 120 -197 121 3 0 68 18 145 39 77 21 150 38 162 39 13 1
70 -23 128 -51z m627 15 c54 -20 95 -39 91 -43 -4 -4 -74 -37 -155 -74 l-147
-67 -106 54 -106 53 158 56 c87 31 160 57 162 57 2 1 48 -15 103 -36z m-997
-123 c65 -38 120 -72 123 -75 6 -5 -10 -12 -175 -70 l-121 -44 -126 86 c-70
47 -124 88 -122 90 4 4 280 80 297 82 4 1 60 -30 124 -69z m1540 -80 c445
-166 406 -151 403 -160 -2 -4 -65 -60 -141 -125 l-139 -118 -400 194 c-220
106 -407 198 -415 204 -12 9 17 26 139 82 84 39 160 69 168 66 8 -2 182 -67
385 -143z m2395 69 c245 -40 447 -73 449 -75 2 -1 -40 -94 -92 -206 -78 -166
-99 -202 -114 -200 -21 4 -901 240 -920 247 -17 6 196 305 217 305 8 0 215
-32 460 -71z m-3297 -11 c59 -28 104 -55 100 -58 -5 -4 -74 -37 -154 -74
l-145 -67 -114 67 c-63 37 -110 69 -105 71 54 20 301 111 305 112 3 1 53 -22
113 -51z m2094 -117 c248 -66 454 -121 457 -121 3 0 -45 -71 -106 -157 -61
-87 -112 -159 -113 -161 -2 -2 -217 78 -480 176 l-477 179 123 106 c68 58 129
105 134 103 6 -2 213 -58 462 -125z m-3083 34 c69 -47 127 -89 130 -93 2 -4
-141 -59 -318 -121 -176 -63 -324 -119 -327 -123 -5 -8 -289 228 -289 240 0 4
152 46 338 94 185 47 338 87 339 87 1 1 58 -37 127 -84z m5236 -60 c254 -41
466 -75 470 -75 9 0 0 -31 -99 -336 l-61 -191 -478 129 c-262 70 -480 129
-483 131 -5 1 181 415 187 417 1 0 210 -34 464 -75z m-4603 -1 c63 -37 111
-70 106 -74 -12 -12 -274 -130 -287 -130 -14 0 -232 149 -229 158 1 4 271 108
292 111 2 1 55 -29 118 -65z m912 -125 c218 -105 407 -197 419 -203 23 -12 19
-17 -115 -130 -76 -65 -143 -120 -150 -123 -15 -6 -874 499 -865 509 11 11
286 136 301 137 7 1 192 -85 410 -190z m-1251 -16 c61 -42 112 -79 112 -83 0
-4 -144 -73 -321 -154 l-321 -147 -46 38 c-87 71 -207 176 -210 183 -3 7 632
238 658 240 8 0 66 -34 128 -77z m2524 -120 c260 -97 475 -178 476 -179 5 -4
-248 -358 -258 -362 -8 -3 -665 310 -902 429 l-88 44 143 122 c78 67 145 122
149 123 5 0 221 -80 480 -177z m3408 102 c255 -41 464 -76 466 -77 1 -2 -30
-144 -69 -315 -49 -219 -75 -313 -84 -313 -11 0 -952 250 -960 255 -6 3 169
525 176 525 5 0 217 -34 471 -75z m-2170 -75 c250 -67 459 -125 463 -130 9 -8
-184 -431 -194 -427 -4 1 -223 83 -488 182 -264 99 -481 183 -481 188 0 19
221 316 233 312 6 -2 217 -59 467 -125z m-1540 -360 c272 -132 495 -243 494
-246 -1 -12 -259 -373 -265 -371 -21 8 -1019 603 -1018 607 1 6 282 249 289
249 3 0 228 -107 500 -239z m2540 91 c261 -71 474 -132 474 -137 -4 -31 -170
-534 -176 -534 -14 0 -973 361 -981 370 -10 9 184 430 198 430 6 0 224 -58
485 -129z m-1230 -136 c261 -97 478 -180 481 -184 6 -5 -207 -471 -222 -485
-5 -6 -996 467 -1011 482 -10 10 253 374 266 369 6 -2 225 -84 486 -182z
m2225 -131 c258 -69 475 -129 481 -133 7 -4 -14 -114 -64 -331 -41 -179 -75
-326 -77 -328 -1 -2 -883 325 -977 363 -10 4 -18 12 -18 18 0 8 120 389 165
525 2 6 8 12 12 12 4 0 219 -57 478 -126z m-1190 -256 c264 -99 482 -181 483
-183 7 -7 -192 -615 -201 -615 -9 0 -1007 479 -1020 490 -4 4 31 89 79 191 47
101 99 213 115 248 24 51 32 62 47 56 9 -4 233 -88 497 -187z m-1309 -69 c274
-132 503 -244 508 -249 4 -4 -45 -121 -109 -259 -115 -244 -118 -250 -140
-238 -12 7 -250 147 -528 311 -332 197 -504 303 -499 311 24 40 258 364 263
365 3 0 231 -108 505 -241z m2344 -319 c267 -100 486 -183 487 -183 2 -3 -167
-740 -170 -744 -2 -1 -181 83 -398 188 -217 105 -449 217 -516 249 l-121 58
89 273 c49 151 94 291 100 312 8 29 15 38 27 34 9 -2 235 -86 502 -187z
m-1276 -197 c281 -135 513 -247 515 -249 2 -2 -43 -147 -99 -323 -95 -294
-105 -319 -122 -310 -52 28 -1034 611 -1042 619 -5 5 29 90 84 207 51 109 104
222 117 251 14 28 27 52 30 52 3 0 236 -111 517 -247z m1279 -618 c233 -112
307 -153 304 -164 -2 -9 -41 -181 -87 -383 -46 -203 -88 -368 -93 -368 -5 0
-246 140 -536 312 l-527 311 41 126 c23 69 70 214 105 322 l63 197 211 -102
c116 -56 350 -169 519 -251z"/>
</g>
</svg>
